<svg xmlns="http://www.w3.org/2000/svg" viewBox="0 0 960 640" role="img" aria-labelledby="title desc">
  <title id="title">Launch Kit Preview</title>
  <desc id="desc">Folder-style preview listing launch kit templates and policy documents.</desc>
  <defs>
    <linearGradient id="bg" x1="0" y1="0" x2="1" y2="1">
      <stop offset="0%" stop-color="#f4f7fb"/>
      <stop offset="100%" stop-color="#e8eef5"/>
    </linearGradient>
  </defs>
  <rect width="960" height="640" fill="url(#bg)"/>
  <rect x="86" y="86" width="788" height="468" rx="18" fill="#ffffff" stroke="#d7dfeb" stroke-width="3"/>
  <rect x="86" y="86" width="788" height="74" rx="18" fill="#1a5276"/>
  <circle cx="126" cy="123" r="8" fill="#7fd2a5"/>
  <circle cx="152" cy="123" r="8" fill="#f6d57a"/>
  <circle cx="178" cy="123" r="8" fill="#ef9b9b"/>
  <text x="220" y="130" font-family="Segoe UI, Arial, sans-serif" font-size="24" fill="#ffffff">EFI Launch Kit / File Preview</text>

  <g font-family="Segoe UI, Arial, sans-serif">
    <rect x="122" y="188" width="716" height="44" rx="8" fill="#f0f5fb"/>
    <text x="146" y="216" font-size="20" fill="#24405a">Client_Service_Agreement_Template.docx</text>
    <text x="760" y="216" font-size="16" fill="#587089">Editable</text>

    <rect x="122" y="242" width="716" height="44" rx="8" fill="#f8fbff"/>
    <text x="146" y="270" font-size="20" fill="#24405a">Intake_Questionnaire_v2.pdf</text>
    <text x="776" y="270" font-size="16" fill="#587089">PDF</text>

    <rect x="122" y="296" width="716" height="44" rx="8" fill="#f0f5fb"/>
    <text x="146" y="324" font-size="20" fill="#24405a">Scope_of_Practice_Disclosure.pdf</text>
    <text x="776" y="324" font-size="16" fill="#587089">PDF</text>

    <rect x="122" y="350" width="716" height="44" rx="8" fill="#f8fbff"/>
    <text x="146" y="378" font-size="20" fill="#24405a">Session_Notes_and_Action_Log.xlsx</text>
    <text x="766" y="378" font-size="16" fill="#587089">Sheet</text>

    <rect x="122" y="404" width="716" height="44" rx="8" fill="#f0f5fb"/>
    <text x="146" y="432" font-size="20" fill="#24405a">Capstone_Submission_Checklist.pdf</text>
    <text x="776" y="432" font-size="16" fill="#587089">PDF</text>

    <rect x="122" y="458" width="716" height="44" rx="8" fill="#f8fbff"/>
    <text x="146" y="486" font-size="20" fill="#24405a">Credential_Verification_Workflow.md</text>
    <text x="758" y="486" font-size="16" fill="#587089">Policy</text>
  </g>

  <text x="122" y="548" font-family="Segoe UI, Arial, sans-serif" font-size="18" fill="#3b556f">
    Preview artifact for curriculum transparency. Final file names may vary by release.
  </text>
</svg>
